<svg width="49" height="49" viewBox="0 0 49 49" fill="none" xmlns="http://www.w3.org/2000/svg">
<rect width="49" height="49" rx="7" fill="white"/>
<path d="M18.6201 19.9148C19.6825 22.1275 21.1307 24.2013 22.9647 26.0353C24.7988 27.8694 26.8725 29.3176 29.0852 30.3799C29.2755 30.4713 29.3707 30.517 29.4911 30.5521C29.919 30.6768 30.4445 30.5872 30.8069 30.3277C30.9089 30.2547 30.9961 30.1675 31.1706 29.993C31.7042 29.4594 31.971 29.1925 32.2393 29.0181C33.2511 28.3602 34.5555 28.3602 35.5674 29.0181C35.8357 29.1925 36.1025 29.4594 36.6361 29.993L36.9335 30.2904C37.7447 31.1016 38.1503 31.5072 38.3706 31.9428C38.8088 32.8091 38.8088 33.8322 38.3706 34.6985C38.1503 35.1341 37.7447 35.5396 36.9335 36.3508L36.6929 36.5914C35.8845 37.3998 35.4803 37.804 34.9308 38.1127C34.321 38.4553 33.3739 38.7016 32.6745 38.6995C32.0442 38.6976 31.6134 38.5753 30.7519 38.3308C26.1218 37.0167 21.7528 34.5371 18.1079 30.8922C14.4629 27.2473 11.9834 22.8782 10.6692 18.2482C10.4247 17.3866 10.3024 16.9559 10.3006 16.3255C10.2985 15.6261 10.5448 14.679 10.8873 14.0692C11.196 13.5197 11.6002 13.1155 12.4086 12.3071L12.6492 12.0665C13.4604 11.2553 13.866 10.8497 14.3016 10.6294C15.1679 10.1912 16.191 10.1912 17.0573 10.6294C17.4929 10.8497 17.8984 11.2553 18.7096 12.0665L19.0071 12.3639C19.5407 12.8976 19.8075 13.1644 19.9819 13.4327C20.6398 14.4445 20.6398 15.7489 19.9819 16.7607C19.8075 17.029 19.5407 17.2958 19.0071 17.8294C18.8326 18.0039 18.7453 18.0912 18.6723 18.1932C18.4128 18.5556 18.3232 19.081 18.448 19.5089C18.4831 19.6294 18.5287 19.7245 18.6201 19.9148Z" fill="#05664F" stroke="#05664F" stroke-width="2.31303" stroke-linecap="round" stroke-linejoin="round"/>
</svg>
