<svg width="49" height="49" viewBox="0 0 49 49" fill="none" xmlns="http://www.w3.org/2000/svg">
<rect width="49" height="49" rx="7" fill="white"/>
<path d="M9.49561 19.6982C9.49561 17.1772 9.49561 15.9167 9.98622 14.9539C10.4178 14.1069 11.1064 13.4183 11.9534 12.9867C12.9163 12.4961 14.1767 12.4961 16.6977 12.4961H32.3023C34.8233 12.4961 36.0837 12.4961 37.0466 12.9867C37.8936 13.4183 38.5822 14.1069 39.0138 14.9539C39.5044 15.9167 39.5044 17.1772 39.5044 19.6982V29.301C39.5044 31.822 39.5044 33.0825 39.0138 34.0454C38.5822 34.8923 37.8936 35.5809 37.0466 36.0125C36.0837 36.5031 34.8233 36.5031 32.3023 36.5031H16.6977C14.1767 36.5031 12.9163 36.5031 11.9534 36.0125C11.1064 35.5809 10.4178 34.8923 9.98622 34.0454C9.49561 33.0825 9.49561 31.822 9.49561 29.301V19.6982Z" fill="#05664F"/>
<path d="M9.49561 16.9974L21.7466 25.5731C22.7386 26.2675 23.2346 26.6147 23.7742 26.7492C24.2508 26.868 24.7492 26.868 25.2258 26.7492C25.7654 26.6147 26.2614 26.2675 27.2534 25.5731L39.5044 16.9974M16.6977 36.5031H32.3023C34.8233 36.5031 36.0837 36.5031 37.0466 36.0125C37.8936 35.5809 38.5822 34.8923 39.0138 34.0454C39.5044 33.0825 39.5044 31.822 39.5044 29.301V19.6982C39.5044 17.1772 39.5044 15.9167 39.0138 14.9539C38.5822 14.1069 37.8936 13.4183 37.0466 12.9867C36.0837 12.4961 34.8233 12.4961 32.3023 12.4961H16.6977C14.1767 12.4961 12.9163 12.4961 11.9534 12.9867C11.1064 13.4183 10.4178 14.1069 9.98622 14.9539C9.49561 15.9167 9.49561 17.1772 9.49561 19.6982V29.301C9.49561 31.822 9.49561 33.0825 9.98622 34.0454C10.4178 34.8923 11.1064 35.5809 11.9534 36.0125C12.9163 36.5031 14.1767 36.5031 16.6977 36.5031Z" stroke="white" stroke-width="2.70447" stroke-linecap="round" stroke-linejoin="round"/>
</svg>
