<svg width="697" height="228" viewBox="0 0 697 228" fill="none" xmlns="http://www.w3.org/2000/svg">
<path d="M32.3383 62.3545L31.9785 63.2875L31.9864 63.2906L31.9945 63.2935L32.3383 62.3545ZM15.609 51.9329L14.9161 52.6541L14.9232 52.6607L15.609 51.9329ZM4.63892 36.1635L3.72119 36.5607L3.7234 36.5657L4.63892 36.1635ZM4.63892 -4.01437L5.55446 -3.61209L5.55664 -3.61715L4.63892 -4.01437ZM15.609 -19.921L14.9231 -20.6488L14.9162 -20.6421L15.609 -19.921ZM32.3383 -30.2054L32.6865 -29.2679L32.6938 -29.2707L32.3383 -30.2054ZM77.1784 -29.2455L76.7701 -28.3327L76.7745 -28.3307L77.1784 -29.2455ZM94.7305 -15.8072L95.4015 -15.0657L96.098 -15.6958L95.5126 -16.4304L94.7305 -15.8072ZM77.4527 -0.17485L76.6908 0.472794L77.3588 1.25868L78.1236 0.566681L77.4527 -0.17485ZM67.1683 -8.53953L66.7034 -7.65408L66.7124 -7.64948L67.1683 -8.53953ZM43.994 -9.4994L44.3565 -8.5674L43.994 -9.4994ZM35.4922 -3.87725L34.7719 -4.57089L34.7714 -4.57036L35.4922 -3.87725ZM30.0072 4.76167L29.0804 4.38597L29.076 4.39683L29.0719 4.40778L30.0072 4.76167ZM30.0072 27.2503L29.0719 27.6042L29.076 27.6152L29.0804 27.626L30.0072 27.2503ZM35.4922 36.0263L34.7585 36.7058L34.7715 36.7199L34.7851 36.7335L35.4922 36.0263ZM43.994 41.5114L44.3565 40.5794L43.994 41.5114ZM67.1683 40.5515L66.7124 39.6614L66.7034 39.6661L67.1683 40.5515ZM77.4527 32.1868L78.1236 31.4453L77.3588 30.7533L76.6908 31.5392L77.4527 32.1868ZM94.7305 47.8192L95.5078 48.4484L96.1033 47.7127L95.4015 47.0776L94.7305 47.8192ZM77.1784 61.2575L77.5868 62.1703L77.5922 62.1678L77.1784 61.2575ZM53.4557 64.9198C45.9739 64.9198 39.0524 63.7482 32.6822 61.4155L31.9945 63.2935C38.6055 65.7144 45.7622 66.9198 53.4557 66.9198V64.9198ZM32.6982 61.4215C26.4138 58.9975 20.9495 55.5913 16.2948 51.2051L14.9232 52.6607C19.7759 57.2335 25.4645 60.775 31.9785 63.2875L32.6982 61.4215ZM16.3018 51.2118C11.7358 46.8248 8.15393 41.6773 5.55444 35.7612L3.7234 36.5657C6.42611 42.7167 10.1577 48.0821 14.9162 52.654L16.3018 51.2118ZM5.55664 35.7663C2.96483 29.7783 1.66228 23.1959 1.66228 16.006H-0.337724C-0.337724 23.4428 1.01082 30.2988 3.7212 36.5607L5.55664 35.7663ZM1.66228 16.006C1.66228 8.81584 2.96489 2.28137 5.55444 -3.6121L3.7234 -4.41665C1.01076 1.75695 -0.337724 8.56938 -0.337724 16.006H1.66228ZM5.55664 -3.61715C8.15675 -9.6243 11.7384 -14.8154 16.3018 -19.1999L14.9162 -20.6421C10.1551 -16.0677 6.42329 -10.6543 3.7212 -4.4116L5.55664 -3.61715ZM16.2948 -19.1932C20.9467 -23.5767 26.407 -26.9356 32.6865 -29.268L31.9901 -31.1428C25.4713 -28.7215 19.7786 -25.2241 14.9232 -20.6488L16.2948 -19.1932ZM32.6938 -29.2707C39.0608 -31.692 45.9783 -32.9078 53.4557 -32.9078V-34.9078C45.7579 -34.9078 38.5971 -33.6554 31.9829 -31.1401L32.6938 -29.2707ZM53.4557 -32.9078C62.2055 -32.9078 69.9703 -31.3747 76.7701 -28.3327L77.5868 -30.1583C70.4912 -33.3327 62.4409 -34.9078 53.4557 -34.9078V-32.9078ZM76.7745 -28.3307C83.6703 -25.2858 89.3898 -20.9047 93.9485 -15.184L95.5126 -16.4304C90.7467 -22.4111 84.7649 -26.9888 77.5824 -30.1603L76.7745 -28.3307ZM94.0596 -16.5487L76.7818 -0.916389L78.1236 0.566681L95.4015 -15.0657L94.0596 -16.5487ZM78.2146 -0.822502C75.0332 -4.56542 71.5044 -7.44212 67.6241 -9.42957L66.7124 -7.64948C70.3283 -5.79741 73.6559 -3.09766 76.6908 0.472794L78.2146 -0.822502ZM67.6331 -9.42492C63.8182 -11.4277 59.5422 -12.4192 54.827 -12.4192V-10.4192C59.2535 -10.4192 63.2049 -9.49084 66.7034 -7.65413L67.6331 -9.42492ZM54.827 -12.4192C50.786 -12.4192 47.0505 -11.761 43.6316 -10.4314L44.3565 -8.5674C47.5196 -9.79749 51.006 -10.4192 54.827 -10.4192V-12.4192ZM43.6316 -10.4314C40.2096 -9.10065 37.2524 -7.14685 34.7719 -4.57089L36.2125 -3.18361C38.4857 -5.54418 41.1964 -7.33847 44.3565 -8.5674L43.6316 -10.4314ZM34.7714 -4.57036C32.3888 -2.09245 30.4944 0.898209 29.0804 4.38597L30.9339 5.13738C32.2625 1.86028 34.0248 -0.908348 36.2131 -3.18414L34.7714 -4.57036ZM29.0719 4.40778C27.7438 7.91773 27.0874 11.7878 27.0874 16.006H29.0874C29.0874 11.9967 29.7109 8.37049 30.9425 5.11557L29.0719 4.40778ZM27.0874 16.006C27.0874 20.2242 27.7438 24.0942 29.0719 27.6042L30.9425 26.8964C29.7109 23.6415 29.0874 20.0153 29.0874 16.006H27.0874ZM29.0804 27.626C30.4933 31.111 32.3841 34.1415 34.7585 36.7058L36.226 35.3469C34.0294 32.9747 32.2636 30.1545 30.9339 26.8746L29.0804 27.626ZM34.7851 36.7335C37.2649 39.2133 40.218 41.1159 43.6316 42.4434L44.3565 40.5794C41.188 39.3472 38.4732 37.5931 36.1993 35.3192L34.7851 36.7335ZM43.6316 42.4434C47.0505 43.773 50.786 44.4311 54.827 44.4311V42.4311C51.006 42.4311 47.5196 41.8095 44.3565 40.5794L43.6316 42.4434ZM54.827 44.4311C59.5422 44.4311 63.8182 43.4397 67.6331 41.4369L66.7034 39.6661C63.2049 41.5028 59.2535 42.4311 54.827 42.4311V44.4311ZM67.6241 41.4415C71.5044 39.4541 75.0332 36.5774 78.2146 32.8345L76.6908 31.5392C73.6559 35.1096 70.3283 37.8094 66.7124 39.6615L67.6241 41.4415ZM76.7818 32.9284L94.0596 48.5607L95.4015 47.0776L78.1236 31.4453L76.7818 32.9284ZM93.9533 47.19C89.393 52.8233 83.6688 57.2089 76.7646 60.3471L77.5922 62.1678C84.7664 58.9069 90.7435 54.3336 95.5078 48.4484L93.9533 47.19ZM76.7701 60.3447C69.9703 63.3867 62.2055 64.9198 53.4557 64.9198V66.9198C62.4409 66.9198 70.4912 65.3447 77.5868 62.1703L76.7701 60.3447ZM148.433 62.2174L148.078 63.1521L148.433 62.2174ZM131.43 51.7958L130.737 52.5166L130.744 52.5234L130.751 52.5301L131.43 51.7958ZM120.323 35.8892L119.407 36.2915L120.323 35.8892ZM120.323 -3.87725L119.407 -4.27952L120.323 -3.87725ZM131.43 -19.6467L132.116 -18.9189L132.116 -18.9193L131.43 -19.6467ZM148.433 -30.2054L148.078 -31.1401L148.433 -30.2054ZM190.942 -30.2054L190.583 -29.2724L190.587 -29.2707L190.942 -30.2054ZM207.809 -19.6467L207.116 -18.9258L207.123 -18.9189L207.809 -19.6467ZM218.916 -3.87725L218.001 -3.47495L218.006 -3.46345L218.916 -3.87725ZM218.916 36.0263L218.003 35.6177L218.001 35.6241L218.916 36.0263ZM207.809 51.7958L208.495 52.5236L207.809 51.7958ZM190.942 62.2174L190.587 61.2827L190.583 61.2844L190.942 62.2174ZM179.835 41.5114L179.464 40.5829L179.455 40.5867L179.835 41.5114ZM188.063 36.0263L187.342 35.3327L187.342 35.3332L188.063 36.0263ZM193.548 27.2503L192.621 26.8746L192.617 26.8855L192.613 26.8964L193.548 27.2503ZM193.548 4.76167L192.613 5.11557L192.618 5.13103L192.625 5.14629L193.548 4.76167ZM188.063 -3.87725L187.329 -3.19784L187.342 -3.18373L187.356 -3.17014L188.063 -3.87725ZM179.835 -9.4994L179.454 -8.57468L179.464 -8.57093L179.835 -9.4994ZM159.404 -9.4994L159.032 -10.4279L159.023 -10.4241L159.404 -9.4994ZM151.176 -3.87725L150.456 -4.57089L150.455 -4.57036L151.176 -3.87725ZM145.691 4.76167L144.764 4.38597L144.762 4.39258L144.759 4.39923L145.691 4.76167ZM145.691 27.2503L144.756 27.6042L144.76 27.6152L144.764 27.626L145.691 27.2503ZM151.176 36.0263L150.442 36.7058L150.455 36.7199L150.469 36.7335L151.176 36.0263ZM159.404 41.5114L159.023 42.4361L159.032 42.4398L159.404 41.5114ZM169.688 64.9198C162.118 64.9198 155.155 63.7034 148.789 61.2827L148.078 63.1521C154.694 65.6678 161.9 66.9198 169.688 66.9198V64.9198ZM148.789 61.2827C142.412 58.8575 136.855 55.4496 132.109 51.0615L130.751 52.5301C135.695 57.1009 141.474 60.6407 148.078 63.1521L148.789 61.2827ZM132.123 51.075C127.463 46.5947 123.837 41.4007 121.238 35.4869L119.407 36.2915C122.111 42.4448 125.889 47.8552 130.737 52.5166L132.123 51.075ZM121.238 35.4869C118.648 29.5919 117.346 23.1028 117.346 16.006H115.346C115.346 23.3531 116.695 30.1195 119.407 36.2915L121.238 35.4869ZM117.346 16.006C117.346 8.90914 118.648 2.42006 121.238 -3.47498L119.407 -4.27952C116.695 1.89251 115.346 8.65892 115.346 16.006H117.346ZM121.238 -3.47498C123.836 -9.38683 127.461 -14.5323 132.116 -18.9189L130.744 -20.3745C125.892 -15.8022 122.112 -10.4347 119.407 -4.27952L121.238 -3.47498ZM132.116 -18.9193C136.862 -23.3962 142.416 -26.8471 148.789 -29.2707L148.078 -31.1401C141.47 -28.6271 135.688 -25.0389 130.744 -20.3741L132.116 -18.9193ZM148.789 -29.2707C155.155 -31.6914 162.118 -32.9078 169.688 -32.9078V-34.9078C161.9 -34.9078 154.694 -33.6559 148.078 -31.1401L148.789 -29.2707ZM169.688 -32.9078C177.352 -32.9078 184.312 -31.6909 190.583 -29.2724L191.302 -31.1384C184.774 -33.6564 177.565 -34.9078 169.688 -34.9078V-32.9078ZM190.587 -29.2707C196.959 -26.8477 202.464 -23.3986 207.116 -18.9259L208.502 -20.3675C203.646 -25.0366 197.908 -28.6266 191.298 -31.1401L190.587 -29.2707ZM207.123 -18.9189C211.778 -14.5323 215.403 -9.38683 218.001 -3.47498L219.832 -4.27953C217.127 -10.4347 213.347 -15.8022 208.495 -20.3745L207.123 -18.9189ZM218.006 -3.46345C220.684 2.42883 222.03 8.91383 222.03 16.006H224.03C224.03 8.65424 222.633 1.88374 219.826 -4.29105L218.006 -3.46345ZM222.03 16.006C222.03 23.098 220.684 29.6309 218.003 35.6177L219.829 36.435C222.633 30.1719 224.03 23.3579 224.03 16.006H222.03ZM218.001 35.6241C215.403 41.5359 211.778 46.6814 207.123 51.068L208.495 52.5236C213.347 47.9513 217.127 42.5838 219.832 36.4286L218.001 35.6241ZM207.123 51.068C202.471 55.4519 196.963 58.8581 190.587 61.2827L191.298 63.1521C197.903 60.6402 203.64 57.0986 208.495 52.5236L207.123 51.068ZM190.583 61.2844C184.312 63.7029 177.352 64.9198 169.688 64.9198V66.9198C177.565 66.9198 184.774 65.6684 191.302 63.1504L190.583 61.2844ZM169.688 44.4311C173.464 44.4311 176.977 43.7698 180.216 42.4361L179.455 40.5867C176.477 41.8126 173.226 42.4311 169.688 42.4311V44.4311ZM180.207 42.4398C183.532 41.1097 186.395 39.2033 188.784 36.7195L187.342 35.3332C185.159 37.6031 182.538 39.3534 179.464 40.5829L180.207 42.4398ZM188.783 36.72C191.259 34.1488 193.158 31.1061 194.483 27.6042L192.613 26.8964C191.378 30.1593 189.62 32.9673 187.342 35.3327L188.783 36.72ZM194.475 27.626C195.9 24.11 196.605 20.2322 196.605 16.006H194.605C194.605 20.0073 193.938 23.6257 192.621 26.8746L194.475 27.626ZM196.605 16.006C196.605 11.6921 195.901 7.80977 194.471 4.37706L192.625 5.14629C193.937 8.29562 194.605 11.9095 194.605 16.006H196.605ZM194.483 4.40778C193.157 0.902977 191.254 -2.09983 188.77 -4.58435L187.356 -3.17014C189.625 -0.90097 191.379 1.8555 192.613 5.11557L194.483 4.40778ZM188.797 -4.55666C186.408 -7.13651 183.541 -9.09432 180.207 -10.4279L179.464 -8.57093C182.529 -7.34481 185.147 -5.55451 187.329 -3.19784L188.797 -4.55666ZM180.216 -10.4241C176.977 -11.7579 173.464 -12.4192 169.688 -12.4192V-10.4192C173.226 -10.4192 176.477 -9.80061 179.455 -8.57473L180.216 -10.4241ZM169.688 -12.4192C165.912 -12.4192 162.357 -11.7578 159.032 -10.4279L159.775 -8.57093C162.849 -9.80068 166.151 -10.4192 169.688 -10.4192V-12.4192ZM159.023 -10.4241C155.784 -9.09051 152.927 -7.13684 150.456 -4.57089L151.896 -3.18361C154.179 -5.55418 156.807 -7.34861 159.784 -8.57473L159.023 -10.4241ZM150.455 -4.57036C148.073 -2.09245 146.178 0.898209 144.764 4.38597L146.618 5.13738C147.946 1.86028 149.709 -0.908348 151.897 -3.18414L150.455 -4.57036ZM144.759 4.39923C143.426 7.82556 142.771 11.6999 142.771 16.006H144.771C144.771 11.9016 145.396 8.27982 146.623 5.12412L144.759 4.39923ZM142.771 16.006C142.771 20.2242 143.428 24.0942 144.756 27.6042L146.626 26.8964C145.395 23.6415 144.771 20.0153 144.771 16.006H142.771ZM144.764 27.626C146.177 31.111 148.068 34.1415 150.442 36.7058L151.91 35.3469C149.713 32.9747 147.947 30.1545 146.618 26.8746L144.764 27.626ZM150.469 36.7335C152.939 39.2037 155.793 41.1059 159.023 42.4361L159.784 40.5867C156.798 39.3571 154.167 37.6027 151.883 35.3192L150.469 36.7335ZM159.032 42.4398C162.357 43.7698 165.912 44.4311 169.688 44.4311V42.4311C166.151 42.4311 162.849 41.8127 159.775 40.5829L159.032 42.4398ZM264.813 54.2641L265.511 53.5488L264.813 54.2641ZM252.883 -31.988V-32.988H251.883V-31.988H252.883ZM280.033 -31.988H281.033V-32.988H280.033V-31.988ZM284.833 38.0832L284.089 38.7512L284.098 38.7615L284.833 38.0832ZM311.572 38.0832L310.828 37.4153L311.572 38.0832ZM316.372 -31.988V-32.988H315.372V-31.988H316.372ZM343.111 -31.988H344.111V-32.988H343.111V-31.988ZM331.181 54.2641L330.483 53.5488L331.181 54.2641ZM297.997 64.9198C284.014 64.9198 273.23 61.0903 265.511 53.5488L264.114 54.9794C272.301 62.9788 283.641 66.9198 297.997 66.9198V64.9198ZM265.511 53.5488C257.801 46.0159 253.883 35.2886 253.883 21.2168H251.883C251.883 35.6671 255.917 46.9714 264.114 54.9794L265.511 53.5488ZM253.883 21.2168V-31.988H251.883V21.2168H253.883ZM252.883 -30.988H280.033V-32.988H252.883V-30.988ZM279.033 -31.988V20.394H281.033V-31.988H279.033ZM279.033 20.394C279.033 28.7056 280.641 34.9096 284.089 38.7511L285.577 37.4153C282.625 34.1264 281.033 28.5375 281.033 20.394H279.033ZM284.098 38.7615C287.611 42.5667 292.376 44.4311 298.271 44.4311V42.4311C292.831 42.4311 288.637 40.7302 285.568 37.405L284.098 38.7615ZM298.271 44.4311C304.166 44.4311 308.892 42.5667 312.317 38.7511L310.828 37.4153C307.853 40.7303 303.712 42.4311 298.271 42.4311V44.4311ZM312.317 38.7511C315.764 34.9096 317.372 28.7056 317.372 20.394H315.372C315.372 28.5375 313.78 34.1264 310.828 37.4153L312.317 38.7511ZM317.372 20.394V-31.988H315.372V20.394H317.372ZM316.372 -30.988H343.111V-32.988H316.372V-30.988ZM342.111 -31.988V21.2168H344.111V-31.988H342.111ZM342.111 21.2168C342.111 35.2886 338.193 46.0159 330.483 53.5488L331.88 54.9794C340.077 46.9714 344.111 35.6671 344.111 21.2168H342.111ZM330.483 53.5488C322.764 61.0903 311.98 64.9198 297.997 64.9198V66.9198C312.353 66.9198 323.693 62.9788 331.88 54.9794L330.483 53.5488ZM377.96 64H376.96V65H377.96V64ZM377.96 -31.988V-32.988H376.96V-31.988H377.96ZM400.311 -31.988L401.081 -32.6259L400.781 -32.988H400.311V-31.988ZM453.242 31.9126V32.9126H455.368L454.012 31.2747L453.242 31.9126ZM442.683 31.9126H441.683V32.9126H442.683V31.9126ZM442.683 -31.988V-32.988H441.683V-31.988H442.683ZM469.285 -31.988H470.285V-32.988H469.285V-31.988ZM469.285 64V65H470.285V64H469.285ZM446.934 64L446.164 64.6379L446.464 65H446.934V64ZM394.003 0.0993958V-0.900604H391.876L393.233 0.737305L394.003 0.0993958ZM404.562 0.0993958H405.562V-0.900604H404.562V0.0993958ZM404.562 64V65H405.562V64H404.562ZM378.96 64V-31.988H376.96V64H378.96ZM377.96 -30.988H400.311V-32.988H377.96V-30.988ZM399.541 -31.3501L452.471 32.5505L454.012 31.2747L401.081 -32.6259L399.541 -31.3501ZM453.242 30.9126H442.683V32.9126H453.242V30.9126ZM443.683 31.9126V-31.988H441.683V31.9126H443.683ZM442.683 -30.988H469.285V-32.988H442.683V-30.988ZM468.285 -31.988V64H470.285V-31.988H468.285ZM469.285 63H446.934V65H469.285V63ZM447.704 63.3621L394.773 -0.538506L393.233 0.737305L446.164 64.6379L447.704 63.3621ZM394.003 1.0994H404.562V-0.900604H394.003V1.0994ZM403.562 0.0993958V64H405.562V0.0993958H403.562ZM404.562 63H377.96V65H404.562V63ZM525.324 64H524.324V65H525.324V64ZM525.324 -10.4593H526.324V-11.4593H525.324V-10.4593ZM495.842 -10.4593H494.842V-9.45929H495.842V-10.4593ZM495.842 -31.988V-32.988H494.842V-31.988H495.842ZM581.819 -31.988H582.819V-32.988H581.819V-31.988ZM581.819 -10.4593V-9.45929H582.819V-10.4593H581.819ZM552.474 -10.4593V-11.4593H551.474V-10.4593H552.474ZM552.474 64V65H553.474V64H552.474ZM526.324 64V-10.4593H524.324V64H526.324ZM525.324 -11.4593H495.842V-9.45929H525.324V-11.4593ZM496.842 -10.4593V-31.988H494.842V-10.4593H496.842ZM495.842 -30.988H581.819V-32.988H495.842V-30.988ZM580.819 -31.988V-10.4593H582.819V-31.988H580.819ZM581.819 -11.4593H552.474V-9.45929H581.819V-11.4593ZM551.474 -10.4593V64H553.474V-10.4593H551.474ZM552.474 63H525.324V65H552.474V63ZM608.39 64H607.39V65H608.39V64ZM608.39 -31.988V-32.988H607.39V-31.988H608.39ZM674.896 -27.7371L674.486 -26.8249L674.491 -26.8228L674.896 -27.7371ZM689.705 -15.3958L688.864 -14.8543L688.869 -14.8478L689.705 -15.3958ZM689.705 22.3138L690.537 22.8685L690.542 22.8618L689.705 22.3138ZM674.896 34.3808L675.294 35.2979L675.301 35.2952L674.896 34.3808ZM623.473 38.4946L622.787 37.7671L620.956 39.4946H623.473V38.4946ZM635.541 27.1132H636.541V24.7954L634.854 26.3857L635.541 27.1132ZM635.541 64V65H636.541V64H635.541ZM667.765 64L666.939 64.5636L667.237 65H667.765V64ZM643.905 29.0329V28.0329H642.012L643.079 29.5966L643.905 29.0329ZM672.839 29.0329L673.663 28.4671L673.365 28.0329H672.839V29.0329ZM696.836 64V65H698.735L697.66 63.4342L696.836 64ZM635.541 29.9928L634.822 30.688L636.541 32.4654V29.9928H635.541ZM623.473 17.5144V16.5144H621.115L622.755 18.2095L623.473 17.5144ZM663.24 13.812L662.583 13.0579L662.577 13.0632L662.571 13.0687L663.24 13.812ZM663.24 -6.89401L662.571 -6.15072L662.577 -6.14528L662.583 -6.13993L663.24 -6.89401ZM623.473 -10.5964L622.755 -11.2916L621.115 -9.59641H623.473V-10.5964ZM635.541 -23.0749H636.541V-25.5475L634.822 -23.77L635.541 -23.0749ZM609.39 64V-31.988H607.39V64H609.39ZM608.39 -30.988H652.27V-32.988H608.39V-30.988ZM652.27 -30.988C660.941 -30.988 668.337 -29.5876 674.486 -26.825L675.305 -28.6493C668.839 -31.5545 661.151 -32.988 652.27 -32.988V-30.988ZM674.491 -26.8228C680.728 -24.0604 685.506 -20.0689 688.865 -14.8543L690.546 -15.9373C686.957 -21.51 681.861 -25.746 675.301 -28.6515L674.491 -26.8228ZM688.869 -14.8478C692.22 -9.73235 693.916 -3.62182 693.916 3.52754H695.916C695.916 -3.94984 694.138 -10.4549 690.542 -15.9438L688.869 -14.8478ZM693.916 3.52754C693.916 10.5827 692.222 16.6483 688.869 21.7657L690.542 22.8618C694.137 17.3749 695.916 10.9163 695.916 3.52754H693.916ZM688.873 21.7591C685.517 26.7937 680.737 30.7001 674.491 33.4665L675.301 35.2952C681.852 32.3937 686.946 28.2554 690.537 22.8685L688.873 21.7591ZM674.497 33.4638C668.344 36.1387 660.945 37.4946 652.27 37.4946V39.4946C661.147 39.4946 668.831 38.108 675.294 35.2979L674.497 33.4638ZM652.27 37.4946H623.473V39.4946H652.27V37.4946ZM624.16 39.2221L636.227 27.8406L634.854 26.3857L622.787 37.7671L624.16 39.2221ZM634.541 27.1132V64H636.541V27.1132H634.541ZM635.541 63H608.39V65H635.541V63ZM668.591 63.4364L644.731 28.4693L643.079 29.5966L666.939 64.5636L668.591 63.4364ZM643.905 30.0329H672.839V28.0329H643.905V30.0329ZM672.014 29.5988L696.011 64.5658L697.66 63.4342L673.663 28.4671L672.014 29.5988ZM696.836 63H667.765V65H696.836V63ZM636.259 29.2977L624.192 16.8192L622.755 18.2095L634.822 30.688L636.259 29.2977ZM623.473 18.5144H650.624V16.5144H623.473V18.5144ZM650.624 18.5144C656.412 18.5144 660.906 17.2579 663.909 14.5553L662.571 13.0687C660.089 15.3026 656.173 16.5144 650.624 16.5144V18.5144ZM663.897 14.5661C666.986 11.8753 668.491 8.15121 668.491 3.52754H666.491C666.491 7.67992 665.162 10.8121 662.583 13.0579L663.897 14.5661ZM668.491 3.52754C668.491 -1.18017 666.991 -4.95328 663.897 -7.64809L662.583 -6.13993C665.157 -3.89822 666.491 -0.723625 666.491 3.52754H668.491ZM663.909 -7.63731C660.906 -10.3399 656.412 -11.5964 650.624 -11.5964V-9.59641C656.173 -9.59641 660.089 -8.38462 662.571 -6.15072L663.909 -7.63731ZM650.624 -11.5964H623.473V-9.59641H650.624V-11.5964ZM624.192 -9.90125L636.259 -22.3797L634.822 -23.77L622.755 -11.2916L624.192 -9.90125ZM634.541 -23.0749V29.9928H636.541V-23.0749H634.541ZM5.5988 226H4.5988V227H5.5988V226ZM5.5988 130.012V129.012H4.5988V130.012H5.5988ZM32.7497 130.012H33.7497V129.012H32.7497V130.012ZM32.7497 226V227H33.7497V226H32.7497ZM6.5988 226V130.012H4.5988V226H6.5988ZM5.5988 131.012H32.7497V129.012H5.5988V131.012ZM31.7497 130.012V226H33.7497V130.012H31.7497ZM32.7497 225H5.5988V227H32.7497V225ZM93.4782 167.173V166.173H92.4782V167.173H93.4782ZM138.044 167.173H139.044V166.173H138.044V167.173ZM138.044 187.468V188.468H139.044V187.468H138.044ZM93.4782 187.468H92.4782V188.468H93.4782V187.468ZM95.398 205.02H94.398V206.02H95.398V205.02ZM145.586 205.02H146.586V204.02H145.586V205.02ZM145.586 226V227H146.586V226H145.586ZM68.5213 226H67.5213V227H68.5213V226ZM68.5213 130.012V129.012H67.5213V130.012H68.5213ZM143.803 130.012H144.803V129.012H143.803V130.012ZM143.803 150.992V151.992H144.803V150.992H143.803ZM95.398 150.992V149.992H94.398V150.992H95.398ZM93.4782 168.173H138.044V166.173H93.4782V168.173ZM137.044 167.173V187.468H139.044V167.173H137.044ZM138.044 186.468H93.4782V188.468H138.044V186.468ZM94.4782 187.468V167.173H92.4782V187.468H94.4782ZM95.398 206.02H145.586V204.02H95.398V206.02ZM144.586 205.02V226H146.586V205.02H144.586ZM145.586 225H68.5213V227H145.586V225ZM69.5213 226V130.012H67.5213V226H69.5213ZM68.5213 131.012H143.803V129.012H68.5213V131.012ZM142.803 130.012V150.992H144.803V130.012H142.803ZM143.803 149.992H95.398V151.992H143.803V149.992ZM94.398 150.992V205.02H96.398V150.992H94.398ZM188.078 225.04L187.81 226.003L187.817 226.005L187.824 226.007L188.078 225.04ZM170.389 217.361L169.475 216.954L169.135 217.718L169.826 218.188L170.389 217.361ZM179.302 197.341L179.84 196.498L178.861 195.873L178.388 196.934L179.302 197.341ZM194.111 204.197L193.8 205.147L193.809 205.15L193.818 205.153L194.111 204.197ZM220.028 205.843L220.298 206.805L220.315 206.801L220.333 206.795L220.028 205.843ZM224.965 203.1L224.23 202.422L224.227 202.424L224.965 203.1ZM223.593 193.775L223.057 194.619L223.593 193.775ZM215.777 190.622L216.026 189.653L215.777 190.622ZM205.081 188.153L204.872 189.131L204.877 189.132L205.081 188.153ZM193.426 184.999L193.109 185.948L193.116 185.95L193.426 184.999ZM182.867 180.063L182.318 180.899L182.326 180.904L182.335 180.91L182.867 180.063ZM175.051 171.972L174.191 172.484L174.198 172.494L175.051 171.972ZM176.696 143.587L175.872 143.022L175.864 143.033L176.696 143.587ZM190.957 132.343L190.548 131.431L190.957 132.343ZM233.055 130.286L232.819 131.258L232.828 131.26L232.837 131.262L233.055 130.286ZM249.373 136.457L250.297 136.84L250.633 136.029L249.873 135.591L249.373 136.457ZM241.008 156.614L240.533 157.494L241.508 158.02L241.932 156.998L241.008 156.614ZM227.433 151.129L227.158 152.091L227.167 152.093L227.176 152.096L227.433 151.129ZM205.356 150.444L205.66 151.396L205.678 151.391L205.694 151.385L205.356 150.444ZM200.419 153.46L199.633 152.843L200.419 153.46ZM201.79 162.922L201.236 163.754L201.258 163.769L201.282 163.783L201.79 162.922ZM209.607 165.939L209.358 166.907L209.374 166.912L209.39 166.915L209.607 165.939ZM220.302 168.27L220.093 169.248L220.098 169.249L220.302 168.27ZM231.958 171.424L231.642 172.373L231.655 172.377L231.669 172.381L231.958 171.424ZM242.654 176.36L242.105 177.196L242.113 177.202L242.122 177.207L242.654 176.36ZM250.333 184.451L249.463 184.945L249.471 184.959L249.48 184.972L250.333 184.451ZM248.55 212.425L247.721 211.866L247.718 211.87L248.55 212.425ZM234.426 223.669L234.017 222.757L234.012 222.759L234.426 223.669ZM210.841 226.92C203.061 226.92 195.559 225.97 188.332 224.073L187.824 226.007C195.223 227.95 202.897 228.92 210.841 228.92V226.92ZM188.346 224.077C181.194 222.085 175.406 219.564 170.951 216.534L169.826 218.188C174.513 221.375 180.518 223.973 187.81 226.003L188.346 224.077ZM171.302 217.768L180.215 197.747L178.388 196.934L169.475 216.954L171.302 217.768ZM178.764 198.184C183.141 200.977 188.155 203.297 193.8 205.147L194.423 203.247C188.914 201.441 184.056 199.189 179.84 196.498L178.764 198.184ZM193.818 205.153C199.575 206.917 205.296 207.802 210.978 207.802V205.802C205.507 205.802 199.983 204.951 194.404 203.241L193.818 205.153ZM210.978 207.802C214.771 207.802 217.889 207.48 220.298 206.805L219.758 204.88C217.596 205.485 214.681 205.802 210.978 205.802V207.802ZM220.333 206.795C222.693 206.04 224.527 205.057 225.702 203.776L224.227 202.424C223.391 203.337 221.934 204.183 219.723 204.89L220.333 206.795ZM225.699 203.778C226.959 202.413 227.61 200.803 227.61 198.986H225.61C225.61 200.278 225.164 201.41 224.23 202.422L225.699 203.778ZM227.61 198.986C227.61 196.416 226.4 194.376 224.13 192.932L223.057 194.619C224.809 195.734 225.61 197.168 225.61 198.986H227.61ZM224.13 192.932C222.003 191.578 219.291 190.493 216.026 189.653L215.528 191.59C218.662 192.396 221.161 193.413 223.057 194.619L224.13 192.932ZM216.026 189.653C212.809 188.826 209.229 188 205.286 187.174L204.877 189.132C208.796 189.952 212.346 190.772 215.528 191.59L216.026 189.653ZM205.291 187.175C201.487 186.36 197.635 185.318 193.735 184.049L193.116 185.95C197.078 187.24 200.997 188.301 204.872 189.131L205.291 187.175ZM193.742 184.051C189.973 182.794 186.527 181.182 183.399 179.216L182.335 180.91C185.607 182.966 189.2 184.645 193.109 185.948L193.742 184.051ZM183.416 179.227C180.341 177.206 177.839 174.617 175.904 171.451L174.198 172.494C176.285 175.91 178.994 178.714 182.318 180.899L183.416 179.227ZM175.91 171.461C174.015 168.273 173.034 164.212 173.034 159.22H171.034C171.034 164.466 172.064 168.907 174.191 172.484L175.91 171.461ZM173.034 159.22C173.034 153.652 174.533 148.635 177.528 144.142L175.864 143.033C172.643 147.864 171.034 153.269 171.034 159.22H173.034ZM177.521 144.153C180.596 139.673 185.19 136.031 191.367 133.255L190.548 131.431C184.11 134.323 179.196 138.177 175.872 143.022L177.521 144.153ZM191.367 133.255C197.509 130.496 205.22 129.092 214.543 129.092V127.092C205.034 127.092 197.022 128.522 190.548 131.431L191.367 133.255ZM214.543 129.092C220.773 129.092 226.864 129.814 232.819 131.258L233.291 129.314C227.179 127.833 220.929 127.092 214.543 127.092V129.092ZM232.837 131.262C238.877 132.614 244.219 134.638 248.873 137.323L249.873 135.591C245.02 132.791 239.483 130.701 233.274 129.31L232.837 131.262ZM248.449 136.074L240.085 156.231L241.932 156.998L250.297 136.84L248.449 136.074ZM241.484 155.734C236.852 153.233 232.253 151.374 227.689 150.163L227.176 152.096C231.571 153.262 236.023 155.059 240.533 157.494L241.484 155.734ZM227.708 150.168C223.148 148.865 218.713 148.21 214.406 148.21V150.21C218.509 150.21 222.759 150.834 227.158 152.091L227.708 150.168ZM214.406 148.21C210.598 148.21 207.453 148.626 205.017 149.503L205.694 151.385C207.829 150.616 210.718 150.21 214.406 150.21V148.21ZM205.051 149.491C202.661 150.256 200.808 151.347 199.633 152.843L201.205 154.078C202.042 153.014 203.48 152.094 205.66 151.396L205.051 149.491ZM199.633 152.843C198.487 154.301 197.911 155.982 197.911 157.848H199.911C199.911 156.424 200.34 155.18 201.205 154.078L199.633 152.843ZM197.911 157.848C197.911 160.322 199.07 162.31 201.236 163.754L202.345 162.09C200.672 160.974 199.911 159.58 199.911 157.848H197.911ZM201.282 163.783C203.4 165.035 206.101 166.07 209.358 166.907L209.856 164.97C206.713 164.162 204.203 163.186 202.299 162.061L201.282 163.783ZM209.39 166.915C212.683 167.647 216.251 168.425 220.093 169.248L220.512 167.292C216.674 166.47 213.112 165.693 209.823 164.963L209.39 166.915ZM220.098 169.249C223.99 170.064 227.839 171.105 231.642 172.373L232.274 170.475C228.399 169.183 224.476 168.122 220.507 167.291L220.098 169.249ZM231.669 172.381C235.514 173.544 238.991 175.15 242.105 177.196L243.203 175.525C239.918 173.366 236.264 171.681 232.247 170.467L231.669 172.381ZM242.122 177.207C245.177 179.128 247.623 181.701 249.463 184.945L251.203 183.957C249.204 180.435 246.53 177.616 243.186 175.514L242.122 177.207ZM249.48 184.972C251.37 188.065 252.35 192.031 252.35 196.929H254.35C254.35 191.772 253.318 187.418 251.186 183.929L249.48 184.972ZM252.35 196.929C252.35 202.301 250.812 207.273 247.721 211.866L249.38 212.983C252.687 208.069 254.35 202.71 254.35 196.929H252.35ZM247.718 211.87C244.736 216.343 240.193 219.982 234.017 222.757L234.836 224.581C241.275 221.688 246.148 217.831 249.382 212.979L247.718 211.87ZM234.012 222.759C227.966 225.515 220.257 226.92 210.841 226.92V228.92C220.439 228.92 228.454 227.491 234.841 224.579L234.012 222.759Z" fill="#203338" fill-opacity="0.16"/>
</svg>
