<svg width="58" height="58" viewBox="0 0 58 58" fill="none" xmlns="http://www.w3.org/2000/svg">
<g clip-path="url(#clip0_93_3598)">
<path d="M15 58.0004C12.7624 57.9755 10.0981 57.7782 7.99996 57.0004C6.46781 56.4341 5.13889 55.1714 3.99996 54.0004C2.82585 52.8638 1.56465 51.5339 0.999959 50.0004C0.22284 47.9024 0.0244488 45.2377 -4.15295e-05 43.0004C-0.171884 39.2811 -4.15295e-05 38.4245 -4.15295e-05 29.0004C-4.15295e-05 19.5763 -0.16678 18.7225 -4.15295e-05 15.0004C0.0274207 12.7641 0.224615 10.0982 0.999959 8.00042C1.5674 6.46802 2.82959 5.14082 3.99996 4.00042C5.13748 2.82737 6.46648 1.56474 7.99996 1.00042C10.0981 0.22266 12.7624 0.0253931 15 0.000422992C18.7204 -0.169718 19.5809 0.000422992 29 0.000422992C38.419 0.000422992 39.2778 -0.166315 43 0.000422992C45.2369 0.0276912 47.9016 0.224889 50 1.00042C51.5328 1.56548 52.8619 2.82837 54 4.00042C55.1724 5.13881 56.4345 6.46722 57 8.00042C57.7779 10.0985 57.9748 12.7629 58 15.0004C58.1701 18.7225 58 19.5791 58 29.0004C58 38.4217 58.1701 39.2783 58 43.0004C57.973 45.2376 57.7761 47.902 57 50.0004C56.4129 51.5221 55.1534 52.8472 54 54.0004C52.8465 55.1536 51.5218 56.4137 50 57.0004C47.9018 57.7784 45.2375 57.9753 43 58.0004C39.2812 58.1706 38.4212 58.0004 29 58.0004C19.5787 58.0004 18.7187 58.1723 15 58.0004Z" fill="url(#paint0_radial_93_3598)"/>
<path d="M15 58.0004C12.7624 57.9755 10.0981 57.7782 7.99996 57.0004C6.46781 56.4341 5.13889 55.1714 3.99996 54.0004C2.82585 52.8638 1.56465 51.5339 0.999959 50.0004C0.22284 47.9024 0.0244488 45.2377 -4.15295e-05 43.0004C-0.171884 39.2811 -4.15295e-05 38.4245 -4.15295e-05 29.0004C-4.15295e-05 19.5763 -0.16678 18.7225 -4.15295e-05 15.0004C0.0274207 12.7641 0.224615 10.0982 0.999959 8.00042C1.5674 6.46802 2.82959 5.14082 3.99996 4.00042C5.13748 2.82737 6.46648 1.56474 7.99996 1.00042C10.0981 0.22266 12.7624 0.0253931 15 0.000422992C18.7204 -0.169718 19.5809 0.000422992 29 0.000422992C38.419 0.000422992 39.2778 -0.166315 43 0.000422992C45.2369 0.0276912 47.9016 0.224889 50 1.00042C51.5328 1.56548 52.8619 2.82837 54 4.00042C55.1724 5.13881 56.4345 6.46722 57 8.00042C57.7779 10.0985 57.9748 12.7629 58 15.0004C58.1701 18.7225 58 19.5791 58 29.0004C58 38.4217 58.1701 39.2783 58 43.0004C57.973 45.2376 57.7761 47.902 57 50.0004C56.4129 51.5221 55.1534 52.8472 54 54.0004C52.8465 55.1536 51.5218 56.4137 50 57.0004C47.9018 57.7784 45.2375 57.9753 43 58.0004C39.2812 58.1706 38.4212 58.0004 29 58.0004C19.5787 58.0004 18.7187 58.1723 15 58.0004" fill="url(#paint1_radial_93_3598)"/>
<path d="M21.9999 28.9999C22 27.5856 23.2141 27.1758 23.9999 25.9999C24.7858 24.824 25.6932 23.541 26.9999 22.9999C28.3067 22.4588 29.6128 21.7239 30.9999 21.9999C32.3871 22.276 33.9999 22.9997 34.9999 23.9999C35.9999 25.0001 36.7242 26.6128 36.9999 27.9999C37.2757 29.3871 36.5414 30.6934 35.9999 31.9999C35.4585 33.3065 34.176 34.2144 32.9999 34.9999C31.8238 35.7855 30.4143 37.0001 28.9999 36.9999C27.1035 36.9996 25.3408 36.341 23.9999 34.9999C22.6591 33.6588 21.9998 30.8963 21.9999 28.9999ZM17.9999 28.9999C17.9999 31.1786 18.7895 34.1884 19.9999 35.9999C21.2104 37.8114 22.987 39.1662 24.9999 39.9999C27.0129 40.8337 29.863 40.425 31.9999 39.9999C34.1368 39.5749 35.4593 38.5405 36.9999 36.9999C38.5406 35.4594 39.5749 34.1367 39.9999 31.9999C40.425 29.8631 40.8337 27.0128 39.9999 24.9999C39.1662 22.9871 37.8115 21.2103 35.9999 19.9999C34.1883 18.7895 31.1787 17.9999 28.9999 17.9999C27.5533 17.9999 26.3365 18.4464 24.9999 18.9999C23.6634 19.5535 23.0229 20.977 21.9999 21.9999C20.977 23.0228 19.5535 23.6634 18.9999 24.9999C18.4463 26.3364 17.9999 27.5533 17.9999 28.9999ZM37.9999 17.9999C37.9997 18.509 38.7173 18.5765 38.9999 18.9999C39.2826 19.4234 39.5296 19.8049 39.9999 19.9999C40.4702 20.195 40.5005 21.099 40.9999 20.9999C41.4993 20.9008 42.6398 20.3598 42.9999 19.9999C43.3601 19.6401 43.9004 19.4992 43.9999 18.9999C44.0995 18.5006 43.1946 17.4704 42.9999 16.9999C42.8053 16.5295 42.4231 16.283 41.9999 15.9999C41.5767 15.7169 41.5091 15.0001 40.9999 14.9999C40.3175 15.0002 39.4826 15.5175 38.9999 15.9999C38.5173 16.4824 38.0005 17.3175 37.9999 17.9999ZM20.9999 46.9999C19.6396 46.985 18.2759 46.472 16.9999 45.9999C16.0746 45.6433 14.7013 45.701 13.9999 44.9999C13.2986 44.2989 13.357 42.9251 12.9999 41.9999C12.5276 40.7241 12.0147 39.3603 11.9999 37.9999C11.8958 35.7388 11.9999 35.7285 11.9999 29.9999C11.9999 24.2713 11.898 23.2633 11.9999 20.9999C12.0164 19.6398 12.5294 18.2762 12.9999 16.9999C13.3566 16.0744 13.2985 14.7013 13.9999 13.9999C14.7013 13.2985 16.0743 13.3565 16.9999 12.9999C18.2758 12.5277 19.6395 12.0147 20.9999 11.9999C23.2611 11.8958 24.2733 11.9999 29.9999 11.9999C35.7265 11.9999 35.7365 11.8969 37.9999 11.9999C39.3602 12.0164 40.7236 12.5294 41.9999 12.9999C42.9255 13.3566 44.2985 13.2986 44.9999 13.9999C45.7013 14.7013 45.6433 16.0744 45.9999 16.9999C46.4722 18.2758 46.9852 19.6396 46.9999 20.9999C47.1041 23.2644 46.9999 24.2708 46.9999 29.9999C46.9999 35.7291 47.1035 35.7366 46.9999 37.9999C46.9841 39.3602 46.4711 40.7238 45.9999 41.9999C45.6429 42.9251 45.7013 44.2989 44.9999 44.9999C44.2986 45.701 42.9253 45.6433 41.9999 45.9999C40.7241 46.4722 39.3603 46.9852 37.9999 46.9999C35.7387 47.1041 35.7294 46.9999 29.9999 46.9999C24.2705 46.9999 23.2606 47.1035 20.9999 46.9999ZM20.9999 7.99992C19.2199 8.03492 16.6672 8.37546 14.9999 8.99992C13.5747 9.55097 13.0805 10.9194 11.9999 11.9999C10.9194 13.0804 9.55101 13.5747 8.99993 14.9999C8.37552 16.6672 8.03502 19.22 7.99993 20.9999C7.89406 23.2871 7.99993 23.174 7.99993 28.9999C7.99993 34.8259 7.89463 35.7122 7.99993 37.9999C8.03501 39.7799 8.37551 42.3327 8.99993 43.9999C9.55104 45.4251 10.9194 45.9194 11.9999 46.9999C13.0805 48.0804 13.5747 49.4488 14.9999 49.9999C16.6673 50.6241 19.2199 50.9646 20.9999 50.9999C23.2883 51.1041 24.1737 50.9999 29.9999 50.9999C35.8262 50.9999 35.7121 51.1052 37.9999 50.9999C39.78 50.9648 42.3326 50.6242 43.9999 49.9999C45.4252 49.4488 45.9194 48.0804 46.9999 46.9999C48.0805 45.9194 49.4488 45.4251 49.9999 43.9999C50.6252 42.3329 50.9657 39.78 50.9999 37.9999C51.1041 35.7111 50.9999 34.8259 50.9999 28.9999C50.9999 23.174 51.1035 23.2876 50.9999 20.9999C50.9649 19.2199 50.6244 16.6671 49.9999 14.9999C49.4489 13.575 48.0801 13.0804 46.9999 11.9999C45.9197 10.9195 45.4248 9.55135 43.9999 8.99992C42.3328 8.37505 39.78 8.03451 37.9999 7.99992C35.7121 7.89519 35.825 7.99992 29.9999 7.99992C24.1748 7.99992 23.2889 7.89463 20.9999 7.99992Z" fill="white"/>
</g>
<defs>
<radialGradient id="paint0_radial_93_3598" cx="0" cy="0" r="1" gradientUnits="userSpaceOnUse" gradientTransform="translate(3.68689 56.8026) scale(73.8306)">
<stop offset="0.09" stop-color="#FA8F21"/>
<stop offset="0.78" stop-color="#D82D7E"/>
</radialGradient>
<radialGradient id="paint1_radial_93_3598" cx="0" cy="0" r="1" gradientUnits="userSpaceOnUse" gradientTransform="translate(40.2031 54.9349) scale(64.9717)">
<stop offset="0.64" stop-color="#8C3AAA" stop-opacity="0"/>
<stop offset="1" stop-color="#8C3AAA"/>
</radialGradient>
<clipPath id="clip0_93_3598">
<rect width="58" height="58" fill="white"/>
</clipPath>
</defs>
</svg>
