<svg width="58" height="58" viewBox="0 0 58 58" fill="none" xmlns="http://www.w3.org/2000/svg">
<g clip-path="url(#clip0_93_3607)">
<path d="M45 0H13C5.81016 0 0 5.81016 0 13V45C0 52.1898 5.81016 58 13 58H45C52.1898 58 58 52.1898 58 45V13C58 5.81016 52.1898 0 45 0Z" fill="#0B86CA"/>
<path d="M16 24H22V43H16V24ZM20 14C20.6693 14 20.4433 14.6193 21 15C21.5567 15.3807 22.7431 15.3666 23 16C23.257 16.6335 23.1292 17.3269 23 18C22.8709 18.6732 22.4719 19.5135 22 20C21.5282 20.4865 20.6559 20.8637 20 21C19.3442 21.1363 18.6194 21.2598 18 21C17.3807 20.7402 17.3746 19.5685 17 19C16.6255 18.4315 16.0039 18.686 16 18C15.9975 17.5422 15.8309 16.4237 16 16C16.1692 15.5763 16.6852 15.3246 17 15C17.3149 14.6754 17.5877 14.1758 18 14C18.4124 13.8242 19.5535 14 20 14Z" fill="white"/>
<path d="M26 23.9999H32V26.9999C32.5872 26.007 32.9811 25.5525 34 24.9999C35.0189 24.4473 36.8393 23.9549 38 23.9999C44.0897 23.9999 45 27.7505 45 32.9999V43.9999H39V34.9999C39 32.7473 39.1667 28.9999 36 28.9999C32.8333 28.9999 32 31.4657 32 33.9999V43.9999H26V23.9999Z" fill="white"/>
</g>
<defs>
<clipPath id="clip0_93_3607">
<rect width="58" height="58" fill="white"/>
</clipPath>
</defs>
</svg>
