<svg width="58" height="58" viewBox="0 0 58 58" fill="none" xmlns="http://www.w3.org/2000/svg">
<g clip-path="url(#clip0_93_3602)">
<path d="M49 0H9C4.19512 0 0 4.19512 0 9V49C0 53.8049 4.19512 58 9 58H49C53.8049 58 58 53.8049 58 49V9C58 4.19512 53.8049 0 49 0Z" fill="#37AEE2"/>
<path d="M22 46C20.7429 46 21.3429 45.1407 21 44L17 32L45 16" fill="#C8DAEA"/>
<path d="M23 46C23.8033 46 24.4262 45.4706 25 45L30 40L24 36" fill="#A9C9DD"/>
<path d="M23 35L38 48C39.574 49.0189 41.5503 48.0378 42 46L48 16C48.5622 13.5093 46.6864 12.2075 45 13L9.00004 27C6.63909 27.9057 6.0888 29.4339 8.00004 30L18 33L39 19C40.0119 18.4339 41.6746 19.2075 41 20" fill="#F6FBFE"/>
</g>
<defs>
<clipPath id="clip0_93_3602">
<rect width="58" height="58" fill="white"/>
</clipPath>
</defs>
</svg>
